<?xml version="1.0" encoding="UTF-8"?>
<svg width="800px" height="800px" viewBox="0 0 24 24" version="1.1" xmlns="http://www.w3.org/2000/svg" xmlns:xlink="http://www.w3.org/1999/xlink">
    <g stroke="none" stroke-width="1" fill="none" fill-rule="evenodd">
        <path d="M22,16 L22,14.5 C22,14.2238576 21.7761424,14 21.5,14 L16.7002966,14 L9.30029663,9 L3.5,9 C3.22385763,9 3,9.22385763 3,9.5 L3,11 L9.30029663,11 L13.5526705,14 L8.30029663,14 L6.30029663,13 L3.5,13 C3.22385763,13 3,13.2238576 3,13.5 L3,15 L7.30029663,15 L9.30029663,16 L21.5,16 C21.7761424,16 22,15.7761424 22,15.5 L22,16 Z" fill="#4DABF7"/>
        <path d="M22,15.5 L22,14.5 C22,14.2238576 21.7761424,14 21.5,14 L16.7002966,14 L9.30029663,9 L3.5,9 C3.22385763,9 3,9.22385763 3,9.5 L3,10.5 C3,10.2238576 3.22385763,10 3.5,10 L9.30029663,10 L16.7002966,15 L21.5,15 C21.7761424,15 22,14.7761424 22,14.5 L22,15.5 Z M22,15.5 L22,14.5 C22,14.2238576 21.7761424,14 21.5,14 L16.7002966,14 L13.5526705,14 L9.30029663,13 L3.5,13 C3.22385763,13 3,13.2238576 3,13.5 L3,14.5 C3,14.2238576 3.22385763,14 3.5,14 L7.30029663,14 L9.30029663,15 L21.5,15 C21.7761424,15 22,14.7761424 22,14.5 L22,15.5 Z" fill="#228BE6"/>
    </g>
</svg>
